<?xml version="1.0" encoding="UTF-8"?>
<!DOCTYPE svg PUBLIC "-//W3C//DTD SVG 1.1//EN" "http://www.w3.org/Graphics/SVG/1.1/DTD/svg11.dtd">
<!-- Creator: CorelDRAW 2017 -->
<svg xmlns="http://www.w3.org/2000/svg" xml:space="preserve" width="941px" height="867px" version="1.1" shape-rendering="geometricPrecision" text-rendering="geometricPrecision" image-rendering="optimizeQuality" fill-rule="evenodd" clip-rule="evenodd"
viewBox="0 0 941 867"
 xmlns:xlink="http://www.w3.org/1999/xlink">
 <g id="Layer_x0020_1">
  <metadata id="CorelCorpID_0Corel-Layer"/>
  <g id="_2276917575664">
   <path fill="#EDEDED" fill-rule="nonzero" d="M836.96 853.81c0,6.83 -161.9,12.37 -361.61,12.37 -199.71,0 -361.62,-5.54 -361.62,-12.37 0,-6.84 161.91,-12.38 361.62,-12.38 199.71,0 361.61,5.54 361.61,12.38z"/>
   <path fill="#FFBF0C" fill-rule="nonzero" d="M313.66 245.75l-4.93 -3.07 -56.53 19.89 -1.92 5.48c-0.35,1.01 -8.52,25.02 4.73,45.06 9.35,14.16 26.18,22.14 50.04,23.73l5.16 0.35 3.81 -3.51c17.61,-16.17 25.74,-32.94 24.17,-49.83 -2.22,-23.92 -23.62,-37.53 -24.53,-38.1z"/>
   <polygon fill="#70A09A" fill-rule="nonzero" points="297.74,133.28 311.06,209.51 396.77,231.37 371.32,159.02 "/>
   <polygon fill="#70A09A" fill-rule="nonzero" points="328.71,218.58 272.23,229.21 221.54,256.28 229.82,296.05 348.83,254.19 "/>
   <polygon fill="#70A09A" fill-rule="nonzero" points="192.29,170.38 151.02,236.51 176.47,308.86 229.62,238.16 "/>
   <path fill="#84B093" fill-rule="nonzero" d="M199.48 1.68l-8.06 -2.2 -4.9 6.76c-2.27,3.12 -55.19,77.23 -31.19,145.44 14.31,40.68 58.95,95.7 60.84,98.02l5.37 6.58 107.17 -37.7 0.06 -8.49c0.02,-2.99 0.39,-73.84 -13.92,-114.52 -23.99,-68.22 -111.65,-92.87 -115.37,-93.89z"/>
   <path fill="#70A09A" fill-rule="nonzero" d="M213.59 135.3c-4.43,-12.59 2.18,-26.38 14.77,-30.81 12.59,-4.43 26.38,2.19 30.81,14.77 4.42,12.59 -2.19,26.38 -14.78,30.81 -12.58,4.43 -26.38,-2.19 -30.8,-14.77z"/>
   <path fill="white" fill-rule="nonzero" d="M224.35 93.1c-18.85,6.63 -28.79,27.36 -22.16,46.21 6.63,18.84 27.36,28.78 46.21,22.15 18.85,-6.63 28.79,-27.36 22.16,-46.2 -6.63,-18.85 -27.36,-28.79 -46.21,-22.16zm16.03 45.57l0 0c-6.28,2.22 -13.19,-1.1 -15.4,-7.38 -2.21,-6.28 1.1,-13.19 7.39,-15.4 6.28,-2.21 13.19,1.1 15.4,7.38 2.21,6.29 -1.1,13.19 -7.39,15.4z"/>
   <path fill="#FFBF0C" fill-rule="nonzero" d="M147.62 648.12c0.58,-2.61 0.88,-5.29 0.88,-8 0,-2.71 -0.3,-5.38 -0.88,-7.99l1.02 -0.58 6.65 -3.76 -3.84 -6.52 -3.83 -6.51 -3.84 -6.52 -6.65 3.76 -1.04 0.59c-1.97,-1.76 -3.59,-3.32 -5.92,-4.66 -2.44,-1.4 -4.15,-2.51 -7.1,-3.34l0 -1.16 0 -8.46 -8.76 0 -7.68 0 -7.15 0 0 8.46 0 1.16c-4.42,0.83 -5.47,1.94 -7.9,3.34 -2.33,1.34 -4.62,2.9 -6.6,4.66l-1.1 -0.59 -6.68 -3.76 -3.86 6.52 -3.84 6.51 -3.84 6.52 6.64 3.76 1.02 0.58c-0.58,2.61 -0.87,5.28 -0.87,7.99 0,2.71 0.29,5.39 0.87,8l-1.02 0.58 -6.65 3.76 3.84 6.51 3.84 6.52 3.84 6.51 6.64 -3.76 1.04 -0.59c1.97,1.77 4.4,3.33 6.73,4.67 2.43,1.39 3.48,2.51 7.9,3.34l0 1.16 0 8.06 7.15 0 7.68 0 8.76 0 0 -8.06 0 -1.16c2.95,-0.83 4.66,-1.95 7.1,-3.34 2.33,-1.34 4.22,-2.9 6.19,-4.67l0.91 0.59 6.58 3.76 3.8 -6.51 3.82 -6.52 3.83 -6.51 -6.65 -3.76 -1.03 -0.58zm-37.15 13.32l0 0c-11.99,0 -21.74,-9.56 -21.74,-21.32 0,-11.75 9.75,-21.31 21.74,-21.31 11.99,0 21.75,9.56 21.75,21.31 0,11.76 -9.76,21.32 -21.75,21.32z"/>
   <path fill="#FFBF0C" fill-rule="nonzero" d="M879.61 700.67l-13.63 -14.59c-1.17,-1.25 -0.54,-3.32 1.15,-3.66 2.79,-0.56 5.45,-2.02 7.5,-4.42 3.97,-4.64 4.2,-11.57 0.54,-16.46 -4.81,-6.44 -13.99,-7.13 -19.7,-1.79 -1.87,1.74 -3.12,3.9 -3.74,6.21 -0.44,1.65 -2.56,2.14 -3.73,0.89l-13.63 -14.59 -14.59 13.64c-1.25,1.17 -3.33,0.53 -3.66,-1.15 -0.56,-2.8 -2.02,-5.45 -4.42,-7.5 -4.64,-3.97 -11.57,-4.2 -16.46,-0.54 -6.45,4.81 -7.13,13.99 -1.8,19.7 1.75,1.86 3.91,3.11 6.21,3.73 1.66,0.45 2.15,2.57 0.9,3.74l-14.59 13.63 13.63 14.59c1.18,1.25 0.54,3.33 -1.14,3.66 -2.8,0.56 -5.46,2.02 -7.51,4.42 -3.96,4.64 -4.19,11.57 -0.54,16.46 4.82,6.44 13.99,7.13 19.7,1.79 1.87,-1.74 3.12,-3.9 3.74,-6.2 0.45,-1.66 2.56,-2.15 3.73,-0.9l13.64 14.59 48.4 -45.25z"/>
   <path fill="#84B093" fill-rule="nonzero" d="M615.7 298.33c1.7,3.19 2.15,6.63 1.58,9.85 -0.35,1.93 1.6,3.48 3.42,2.75l21.25 -8.44 -28 -70.51 -21.25 8.44c-1.82,0.72 -2.18,3.18 -0.6,4.35 2.19,1.62 3.97,3.86 5.05,6.58 3.3,8.32 -1.26,17.81 -10.14,20.25 -6.74,1.85 -14.04,-1.29 -17.33,-7.46 -1.69,-3.18 -2.15,-6.63 -1.57,-9.84 0.35,-1.93 -1.6,-3.48 -3.43,-2.76l-21.25 8.44 28.01 70.52 21.25 -8.44c1.82,-0.73 2.18,-3.19 0.6,-4.35 -2.19,-1.63 -3.97,-3.86 -5.05,-6.58 -3.31,-8.32 1.26,-17.81 10.14,-20.25 6.74,-1.86 14.03,1.28 17.32,7.45z"/>
   <path fill="#E3E3E3" fill-rule="nonzero" d="M816.51 690.3l-139.22 -49.86c-10.59,-3.79 -16.09,-15.45 -12.3,-26.03l95.39 -266.38c3.79,-10.58 15.44,-16.09 26.03,-12.3l139.23 49.87c10.58,3.79 16.09,15.44 12.3,26.02l-95.4 266.38c-3.79,10.58 -15.44,16.09 -26.03,12.3z"/>
   <polygon fill="#AADDD9" fill-rule="nonzero" points="754.81,358.99 675.65,580.03 853.2,643.62 932.36,422.58 "/>
   <polygon fill="#AADDD9" fill-rule="nonzero" points="677.87,580.74 855.42,644.33 934.58,423.29 "/>
   <polygon fill="#84B093" fill-rule="nonzero" points="754.81,358.99 675.65,580.03 853.2,643.62 932.36,422.58 "/>
   <polygon fill="#467958" fill-rule="nonzero" points="677.87,580.74 855.42,644.33 934.58,423.29 "/>
   <path fill="white" fill-rule="nonzero" d="M774.71 645.16c-3.17,8.87 -12.93,13.48 -21.79,10.3 -8.87,-3.17 -13.48,-12.93 -10.31,-21.79 3.18,-8.87 12.94,-13.48 21.8,-10.31 8.87,3.18 13.48,12.94 10.3,21.8z"/>
   <g>
    <path fill="#FFBF0C" fill-rule="nonzero" d="M781.94 217.32l0 65.77c0,11.78 5.66,27.4 18.26,27.4l29.94 0 54.98 23.85 0 -23.85 18.59 0c12.64,0 21.21,-15.89 21.21,-27.4l0 -65.77c0,-11.68 -8.21,-18.85 -21.21,-18.85l-103.51 0c-12.6,0 -18.26,6.98 -18.26,18.85z"/>
    <path fill="white" fill-rule="nonzero" d="M871.71 252.06c0,-5.32 4.31,-9.63 9.63,-9.63 5.32,0 9.63,4.31 9.63,9.63 0,5.31 -4.31,9.63 -9.63,9.63 -5.32,0 -9.63,-4.32 -9.63,-9.63z"/>
    <path fill="white" fill-rule="nonzero" d="M842.83 252.06c0,-5.32 4.31,-9.63 9.63,-9.63 5.31,0 9.62,4.31 9.62,9.63 0,5.31 -4.31,9.63 -9.62,9.63 -5.32,0 -9.63,-4.32 -9.63,-9.63z"/>
    <path fill="white" fill-rule="nonzero" d="M813.53 252.06c0,-5.32 4.31,-9.63 9.63,-9.63 5.32,0 9.63,4.31 9.63,9.63 0,5.31 -4.31,9.63 -9.63,9.63 -5.32,0 -9.63,-4.32 -9.63,-9.63z"/>
   </g>
   <path fill="#84B093" fill-rule="nonzero" d="M808.56 140.98l-127.55 0c-16.02,0 -25.83,9.97 -25.83,24.37l0 81.04c0,14.18 10.26,33.15 25.83,33.15l22.81 0 0 30 67.85 -30 36.89 0c15.54,0 24.97,-18.64 24.97,-33.15l0 -81.04c0,-14.63 -9.44,-24.37 -24.97,-24.37z"/>
   <path fill="white" fill-rule="nonzero" d="M708.58 220.01c-6.56,0 -11.87,-5.31 -11.87,-11.86 0,-6.56 5.31,-11.87 11.87,-11.87 6.55,0 11.86,5.31 11.86,11.87 0,6.55 -5.31,11.86 -11.86,11.86z"/>
   <path fill="white" fill-rule="nonzero" d="M744.17 220.01c-6.55,0 -11.87,-5.31 -11.87,-11.86 0,-6.56 5.32,-11.87 11.87,-11.87 6.55,0 11.86,5.31 11.86,11.87 0,6.55 -5.31,11.86 -11.86,11.86z"/>
   <path fill="white" fill-rule="nonzero" d="M780.27 220.01c-6.55,0 -11.86,-5.31 -11.86,-11.86 0,-6.56 5.31,-11.87 11.86,-11.87 6.55,0 11.87,5.31 11.87,11.87 0,6.55 -5.32,11.86 -11.87,11.86z"/>
   <path fill="#EBECEC" fill-rule="nonzero" d="M342.09 522.04c0,78.01 -63.24,141.25 -141.25,141.25 -78.01,0 -141.25,-63.24 -141.25,-141.25 0,-78.01 63.24,-141.25 141.25,-141.25 78.01,0 141.25,63.24 141.25,141.25z"/>
   <path fill="#84B093" fill-rule="nonzero" d="M76.94 454.18c0.15,7.65 2.31,12.39 0.39,16.88 -2.42,5.65 -5.24,15.72 -2.82,22.57 2.41,6.85 6.04,21.76 9.26,22.17 3.23,0.4 -2.41,-16.12 0.81,-10.88 3.22,5.23 3.22,13.03 8.87,18.4 5.64,5.37 13.29,4.56 19.34,9.8 6.05,5.24 12.09,12.9 17.73,12.09 0,0 -0.4,4.03 -3.22,10.89 -2.82,6.85 -3.23,14.91 0.4,19.74 3.63,4.84 7.25,12.09 10.48,15.72 3.22,3.62 5.64,22.97 4.83,32.64 -0.59,7.19 1.7,21.04 7.05,29.68 2.34,0.9 4.71,1.74 7.1,2.52 -1.02,-1.41 -1.97,-2.94 -2.46,-4.39 -2.01,-6.05 1.56,-20.15 6.42,-22.17 4.86,-2.01 9.3,-10.07 12.93,-15.71 3.62,-5.65 12.89,-8.06 15.71,-14.91 2.82,-6.86 1.61,-14.92 3.23,-18.54 1.61,-3.63 6.04,-11.69 -3.63,-16.53 -9.67,-4.83 -13.7,-2.41 -14.11,-6.85 -0.4,-4.43 -2.82,-9.27 -9.67,-11.28 -6.85,-2.02 -12.89,-5.93 -20.55,-6.79 -7.66,-0.87 -9.27,5.18 -13.3,1.95 -4.03,-3.22 -7.25,-6.44 -8.87,-10.47 -1.61,-4.03 -6.44,-1.62 -6.04,-4.03 0.4,-2.42 6.85,-9.27 -0.4,-6.85 -7.26,2.41 -13.71,1.61 -13.3,-4.84 0.4,-6.45 9.27,-8.86 12.89,-9.67 3.63,-0.81 6.45,3.62 10.88,6.45 4.44,2.82 0.41,-4.03 2.83,-8.87 2.41,-4.84 11.68,-4.43 12.89,-11.28 1.21,-6.85 -0.4,-12.5 6.85,-13.3 7.26,-0.81 14.91,0.4 15.72,-3.23 0.8,-3.62 -8.46,1.21 -8.87,-3.22 -0.4,-4.43 8.06,-10.48 10.48,-6.04 2.42,4.43 8.46,4.83 9.27,3.22 0.8,-1.61 0,-4.43 -2.82,-11.28 -2.82,-6.86 -5.64,-4.84 -8.06,-12.5 -2.42,-7.65 -6.45,0.41 -10.48,-3.62 -4.03,-4.03 -8.86,-12.5 -9.67,-5.24 -0.81,7.25 -0.81,11.28 -4.43,16.92 -3.63,5.64 -5.24,1.21 -8.47,-2.42 -3.22,-3.62 -10.47,-7.25 -8.06,-10.47 2.42,-3.23 4.84,-11.69 8.47,-9.27 3.62,2.42 9.27,2.42 8.46,-1.61 -0.81,-4.03 0,-5.65 1.61,-7.66 1.61,-2.02 7.26,-5.64 7.26,1.61 0,7.26 -0.81,9.27 4.83,10.08 5.64,0.8 12.09,1.21 11.69,-2.42 -0.41,-3.63 1.61,-2.82 0,-8.87 -1.62,-6.04 -6.45,-6.44 -11.69,-9.27 -5.24,-2.82 -8.06,-7.25 -12.49,-5.64 -4.44,1.61 -4.84,3.23 -5.24,7.66 -0.4,4.43 -2.82,6.04 -4.43,4.03 -1.62,-2.02 0.4,-8.46 -5.65,-4.43 -6.04,4.03 -8.46,10.88 -11.68,6.04 -2.66,-3.99 2.36,-10.44 -0.56,-10.55 -4.25,3.28 -8.31,6.8 -12.15,10.53 4.05,1.64 7.54,4.17 3.44,5.66 -2.36,0.86 -5.97,0.46 -9.32,0.39 -7.6,8.3 -14.22,17.52 -19.68,27.46z"/>
   <path fill="#84B093" fill-rule="nonzero" d="M124.88 404.17c-0.02,4.5 1.21,8.06 5.24,4.03 4.03,-4.03 6.45,-8.87 9.27,-6.85 2.82,2.01 7.65,1.48 9.67,1.34 2.01,-0.13 2.42,-6.18 8.06,-5.37 5.64,0.8 3.63,-1.21 9.67,-4.44 6.04,-3.22 18.94,-8.86 5.64,-7.25 -4.41,0.53 -7.45,0.49 -9.87,0.42 -6.17,1.73 -12.15,3.87 -17.94,6.39 -5.59,3.32 -7.29,3.56 -9.26,4.88 -0.41,0.27 -0.83,0.31 -1.26,0.22 -3.16,1.69 -6.24,3.5 -9.25,5.42 0.02,0.34 0.03,0.73 0.03,1.21z"/>
   <path fill="#84B093" fill-rule="nonzero" d="M173.24 391.68c-4.76,4.11 -12.09,10.07 -6.45,10.07 5.64,0 8.38,-2.95 11.44,0.94 3.07,3.9 1.86,9.94 1.86,12.76 0,2.82 -1.61,9.27 2.42,17.33 4.03,8.06 4.43,13.3 8.46,8.06 4.03,-5.24 13.7,-15.31 18.54,-16.12 4.83,-0.81 9.67,-2.82 12.09,-6.85 2.42,-4.03 0,-7.94 4.03,-10.82 4.03,-2.88 3.22,-6.51 4.43,-10.94 1.21,-4.43 12.09,-4.43 7.25,-6.85 -4.83,-2.42 -13.7,-4.03 -24.17,-2.82 -10.48,1.2 -31.03,-2.42 -39.9,5.24z"/>
   <path fill="#84B093" fill-rule="nonzero" d="M128.91 516.2c-2.56,4.18 -1.21,4.43 1.61,5.24 2.82,0.8 -1.21,5.64 2.02,6.04 3.22,0.4 10.47,2.42 12.49,0 2.01,-2.41 -3.22,-1.47 -6.85,-4.16 -3.63,-2.69 -7.45,-10.09 -9.27,-7.12z"/>
   <path fill="#95D4CF" fill-rule="nonzero" d="M323.96 581.89c-4.34,2.17 -2.42,5.64 -6.45,8.06 -4.03,2.41 -2.42,3.22 -3.63,8.86 -0.84,3.95 -0.31,6.72 1.06,6.5 1.67,-2.29 3.28,-4.62 4.81,-7.01 3.52,-7.2 7.94,-18.28 4.21,-16.41z"/>
   <path fill="#84B093" fill-rule="nonzero" d="M310.29 432.76c-0.52,0.04 -0.94,0.18 -1.24,0.42 -4.03,3.23 -10.88,2.74 -10.08,-0.44 0.81,-3.18 6.05,-2.38 -2.82,-8.42 -8.87,-6.05 -10.48,-11.29 -17.33,-3.63 -6.85,7.66 -8.46,14.11 -12.49,16.12 -4.03,2.02 -7.26,8.46 -2.82,10.07 4.43,1.62 4.83,0 8.46,3.23 3.63,3.22 8.47,2.42 9.27,0.4 0.81,-2.01 1.61,-8.46 2.01,-10.88 0.41,-2.42 4.5,-10.48 4.07,-4.03 -0.44,6.45 5.61,6.45 1.58,10.88 -4.03,4.43 -1.62,8.06 -9.68,8.87 -8.05,0.8 -8.46,-4.03 -12.89,-1.62 -4.43,2.42 -4.03,4.04 -5.64,6.45 -1.62,2.42 -10.08,7.26 -10.08,7.26 0,0 -6.85,-2.42 -3.62,2.01 3.22,4.44 6.04,9.67 3.22,10.08 -2.82,0.4 -10.48,-4.03 -10.48,0.8 0,4.84 -1.21,10.08 2.02,11.29 2.27,0.85 3.75,2.7 5.84,2.44 -1.62,0.7 -3.09,1.71 -4.23,3.2 -3.14,4.1 -1.21,11.28 -7.66,13.7 -6.45,2.42 -6.45,5.24 -7.65,10.48 -1.21,5.24 0,18.53 1.61,19.74 1.61,1.21 4.43,11.29 11.28,10.48 6.85,-0.8 14.11,-1.12 16.52,0.05 2.42,1.16 6.45,-2.47 7.66,6.8 1.21,9.27 4.03,10.48 5.64,15.32 1.61,4.83 -0.8,14.91 0,20.95 0.81,6.05 6.45,16.52 6.45,21.76 0,5.24 6.04,7.66 9.27,5.64 3.22,-2.01 10.08,-6.04 12.9,-12.49 2.82,-6.45 2.82,-9.67 7.25,-18.13 4.43,-8.47 3.22,-14.51 5.24,-20.96 2.01,-6.45 6.86,-10.88 13.5,-18.13 6.65,-7.26 5.45,-11.29 0,-10.88 -5.44,0.4 -9.07,-4.84 -11.89,-11.29 -2.82,-6.44 -6.05,-22.56 -3.63,-17.32 2.42,5.23 7.26,19.74 12.09,22.16 4.84,2.42 13.71,-4.11 15.72,-6.49 2.01,-2.38 1.21,-9.23 -4.03,-12.05 -5.24,-2.82 -2.01,-5.24 3.22,-2.01 1.73,1.06 3.54,2.12 5.16,2.82 -1.04,-32.07 -12.76,-61.43 -31.72,-84.65zm-6.08 64.1l0 0c-0.4,3.22 1.21,8.46 -7.65,6.44 -8.87,-2.01 -8.87,-6.85 -12.5,-3.22 -3.62,3.63 -8.06,6.85 -13.3,1.21 -5.24,-5.64 -4.43,-7.26 -7.25,-7.66 -2.01,-0.29 -8.71,-1.78 -14.3,-0.16 0.44,-0.25 0.9,-0.6 1.4,-1.05 4.03,-3.62 3.23,-4.83 7.66,-8.86 4.43,-4.03 7.66,-7.66 10.88,-4.03 3.22,3.62 10.07,4.43 7.66,8.46 -2.42,4.03 -0.81,6.45 2.01,4.03 2.82,-2.42 6.85,-4.03 4.03,-7.25 -2.82,-3.23 -5.64,-11.69 -1.61,-6.05 4.03,5.64 5.24,8.46 7.66,11.69 2.42,3.22 4.83,5.24 5.64,3.22 0.8,-2.01 -0.4,-6.45 0.8,-7.25 1.22,-0.81 0,6.85 3.63,7.25 3.63,0.4 5.64,0 5.24,3.23zm9.27 -13.71l0 0c-2.83,-1.61 -8.06,0 -14.51,2.02 -6.45,2.01 -1.29,-4.49 1.61,-8.87 2.6,-3.91 1.21,1.21 6.85,1.62 5.65,0.4 8.87,6.85 6.05,5.23zm14.11 12.5l0 0c-1.21,1.21 -3.23,-5.65 -4.44,-8.87 -1.21,-3.22 -1.18,-8.82 2.22,-11.94 4.24,-3.89 2.22,5.09 2.22,9.93 0,4.83 1.2,9.67 0,10.88z"/>
   <path fill="#95D4CF" fill-rule="nonzero" d="M249.81 446.48c-2.47,0.74 -4.44,5.64 -3.23,8.06 1.21,2.42 -1.21,-1.21 -4.43,0.81 -3.22,2.01 -8.02,7.65 -3.61,8.06 4.42,0.4 3.61,-3.23 7.64,-1.61 4.03,1.61 8.46,1.2 8.46,-2.83 0,-4.03 -0.8,-13.7 -4.83,-12.49z"/>
   <path fill="#84B093" fill-rule="nonzero" d="M223.61 427.94c-2.42,0.35 -3.22,6.45 2.02,7.26 5.24,0.8 14.62,-1.21 11.14,-4.43 -3.49,-3.23 -7.52,-3.63 -13.16,-2.83z"/>
   <polygon fill="#FF9500" fill-rule="nonzero" points="477.02,639.41 722.34,456.81 240.08,456.81 "/>
   <path fill="#EDEDED" fill-rule="nonzero" d="M248.9 748.63c0,0 20.12,16.78 33.97,16.78l396.69 0c23.62,0 42.78,-19.15 42.78,-42.78l0 -265.82 -473.44 291.82z"/>
   <path fill="#E3E3E3" fill-rule="nonzero" d="M713.52 748.63c-7.82,10.2 -20.12,16.78 -33.96,16.78l-396.69 0c-23.63,0 -42.79,-19.15 -42.79,-42.78l0 -265.82c0,0 444.33,275.82 473.44,291.82z"/>
   <path fill="#D1D1D1" fill-rule="nonzero" d="M248.9 748.63l0 0c0.47,0.62 0.96,1.21 1.46,1.8 0.05,0.05 0.09,0.11 0.14,0.16 0.47,0.54 0.95,1.08 1.45,1.6 0.05,0.05 0.1,0.1 0.16,0.16 0.52,0.54 1.07,1.08 1.62,1.6 0.01,0.01 0.02,0.02 0.03,0.02 1.74,1.62 3.61,3.08 5.59,4.39 0.09,0.06 0.19,0.12 0.28,0.19 0.55,0.35 1.1,0.69 1.66,1.02 0.15,0.09 0.3,0.17 0.45,0.26 0.52,0.29 1.06,0.58 1.59,0.86 0.17,0.08 0.33,0.17 0.5,0.25 0.56,0.28 1.12,0.54 1.7,0.8 0.13,0.06 0.27,0.12 0.41,0.18 1.42,0.62 2.89,1.16 4.4,1.62 0.16,0.05 0.33,0.1 0.49,0.14 0.57,0.17 1.15,0.33 1.74,0.48 0.25,0.06 0.5,0.11 0.76,0.17 0.5,0.12 1.01,0.22 1.52,0.32 0.29,0.05 0.57,0.11 0.86,0.15 0.49,0.09 1,0.16 1.5,0.23 0.29,0.04 0.58,0.08 0.87,0.11 0.53,0.06 1.08,0.1 1.62,0.14 0.25,0.02 0.51,0.32 0.76,0.33 0.8,0.05 1.6,0.34 2.41,0.34l396.69 0c0.8,0 1.61,-0.29 2.4,-0.34 0.26,-0.01 0.51,-0.17 0.77,-0.19 0.54,-0.04 1.08,-0.15 1.62,-0.21 0.29,-0.04 0.58,-0.11 0.87,-0.15 0.5,-0.06 1,-0.15 1.5,-0.24 0.28,-0.05 0.57,-0.11 0.85,-0.16 0.51,-0.1 1.02,-0.21 1.53,-0.32 0.25,-0.06 0.51,-0.12 0.76,-0.18 0.58,-0.15 1.16,-0.31 1.74,-0.48 0.16,-0.04 0.32,-0.09 0.49,-0.14 1.5,-0.46 2.97,-1 4.4,-1.62 0.14,-0.06 0.27,-0.12 0.41,-0.18 0.57,-0.26 1.14,-0.52 1.7,-0.8 0.16,-0.08 0.33,-0.17 0.49,-0.25 0.54,-0.28 1.07,-0.57 1.59,-0.86 0.15,-0.09 0.3,-0.17 0.45,-0.26 0.56,-0.33 1.12,-0.67 1.66,-1.02 0.09,-0.07 0.19,-0.13 0.28,-0.19 1.99,-1.31 3.86,-2.77 5.59,-4.39 0.01,0 0.02,-0.01 0.03,-0.02 0.56,-0.52 1.1,-1.06 1.63,-1.6 0.05,-0.06 0.1,-0.11 0.15,-0.16 0.5,-0.52 0.98,-1.06 1.46,-1.6 0.04,-0.05 0.09,-0.11 0.13,-0.16 0.5,-0.59 0.99,-1.18 1.46,-1.8l0 0c-14.57,-8.01 -232.31,-141.62 -232.31,-141.62 0,0 -217.74,133.61 -232.31,141.62z"/>
   <path fill="#FFBF0C" fill-rule="nonzero" d="M240.08 457.14l219.03 -195.57c13.09,-9.84 31.11,-9.84 44.21,0l219.02 195.57 -482.26 0z"/>
   <polygon fill="#EBFAF0" fill-rule="nonzero" points="481.8,607.15 677.29,485.06 677.29,301.65 289.63,301.65 289.63,487.16 "/>
   <path fill="#858585" fill-rule="nonzero" d="M364.25 405.27c-0.42,3.61 -1.75,6.4 -4,8.36 -2.24,1.96 -5.22,2.95 -8.95,2.95 -4.03,0 -7.27,-1.45 -9.7,-4.34 -2.43,-2.9 -3.65,-6.78 -3.65,-11.63l0 -3.28c0,-3.18 0.56,-5.98 1.7,-8.39 1.14,-2.41 2.74,-4.26 4.82,-5.55 2.08,-1.29 4.49,-1.94 7.23,-1.94 3.63,0 6.54,1.01 8.73,3.04 2.19,2.02 3.46,4.83 3.82,8.41l-4.53 0c-0.38,-2.73 -1.23,-4.7 -2.54,-5.91 -1.31,-1.23 -3.14,-1.84 -5.48,-1.84 -2.88,0 -5.14,1.07 -6.77,3.2 -1.64,2.12 -2.45,5.16 -2.45,9.08l0 3.31c0,3.71 0.77,6.66 2.32,8.86 1.55,2.18 3.72,3.28 6.5,3.28 2.5,0 4.42,-0.57 5.76,-1.7 1.34,-1.13 2.23,-3.1 2.66,-5.91l4.53 0zm32.42 -5.15c0,3.35 -0.56,6.27 -1.69,8.77 -1.12,2.5 -2.71,4.41 -4.78,5.72 -2.06,1.31 -4.47,1.97 -7.23,1.97 -2.69,0 -5.07,-0.66 -7.15,-1.99 -2.08,-1.32 -3.7,-3.2 -4.85,-5.65 -1.15,-2.45 -1.73,-5.29 -1.77,-8.51l0 -2.47c0,-3.28 0.57,-6.19 1.72,-8.72 1.13,-2.51 2.75,-4.44 4.84,-5.78 2.08,-1.33 4.48,-2.01 7.17,-2.01 2.73,0 5.15,0.67 7.23,1.99 2.09,1.32 3.7,3.23 4.82,5.75 1.13,2.51 1.69,5.44 1.69,8.77l0 2.16zm-4.47 -2.21c0,-4.04 -0.82,-7.15 -2.45,-9.31 -1.62,-2.17 -3.9,-3.26 -6.82,-3.26 -2.85,0 -5.09,1.09 -6.73,3.26 -1.63,2.16 -2.47,5.16 -2.52,9.01l0 2.51c0,3.93 0.83,7.01 2.47,9.25 1.65,2.24 3.93,3.37 6.82,3.37 2.92,0 5.17,-1.06 6.76,-3.18 1.59,-2.12 2.42,-5.15 2.47,-9.11l0 -2.54zm37.5 18.19l-4.53 0 -17.2 -26.33 0 26.33 -4.53 0 0 -34.17 4.53 0 17.24 26.45 0 -26.45 4.49 0 0 34.17zm30.91 -30.47l-10.98 0 0 30.47 -4.48 0 0 -30.47 -10.95 0 0 -3.7 26.41 0 0 3.7zm22.08 21.53l-14.32 0 -3.21 8.94 -4.65 0 13.05 -34.17 3.94 0 13.07 34.17 -4.62 0 -3.26 -8.94zm-12.96 -3.7l11.62 0 -5.82 -15.97 -5.8 15.97zm50.32 1.81c-0.42,3.61 -1.75,6.4 -4,8.36 -2.24,1.96 -5.22,2.95 -8.95,2.95 -4.03,0 -7.27,-1.45 -9.71,-4.34 -2.42,-2.9 -3.64,-6.78 -3.64,-11.63l0 -3.28c0,-3.18 0.56,-5.98 1.7,-8.39 1.14,-2.41 2.74,-4.26 4.82,-5.55 2.08,-1.29 4.49,-1.94 7.22,-1.94 3.64,0 6.55,1.01 8.73,3.04 2.2,2.02 3.47,4.83 3.83,8.41l-4.53 0c-0.38,-2.73 -1.23,-4.7 -2.54,-5.91 -1.31,-1.23 -3.14,-1.84 -5.49,-1.84 -2.87,0 -5.13,1.07 -6.76,3.2 -1.64,2.12 -2.45,5.16 -2.45,9.08l0 3.31c0,3.71 0.77,6.66 2.32,8.86 1.55,2.18 3.72,3.28 6.5,3.28 2.5,0 4.42,-0.57 5.76,-1.7 1.34,-1.13 2.23,-3.1 2.66,-5.91l4.53 0zm29.07 -19.64l-10.98 0 0 30.47 -4.48 0 0 -30.47 -10.96 0 0 -3.7 26.42 0 0 3.7zm40.07 -3.7l0 23.24c-0.02,3.22 -1.04,5.86 -3.05,7.91 -2.01,2.05 -4.73,3.2 -8.17,3.45l-1.2 0.05c-3.74,0 -6.72,-1.01 -8.94,-3.03 -2.22,-2.02 -3.34,-4.79 -3.38,-8.34l0 -23.28 4.47 0 0 23.13c0,2.48 0.67,4.4 2.03,5.77 1.36,1.37 3.3,2.05 5.82,2.05 2.55,0 4.5,-0.68 5.86,-2.04 1.35,-1.36 2.02,-3.28 2.02,-5.75l0 -23.16 4.54 0zm17.17 18.94c-3.86,-1.11 -6.67,-2.48 -8.43,-4.1 -1.76,-1.61 -2.64,-3.62 -2.64,-5.99 0,-2.7 1.08,-4.92 3.23,-6.68 2.15,-1.77 4.95,-2.65 8.38,-2.65 2.35,0 4.45,0.46 6.28,1.36 1.84,0.91 3.26,2.16 4.27,3.76 1.01,1.59 1.51,3.34 1.51,5.23l-4.52 0c0,-2.07 -0.66,-3.69 -1.97,-4.88 -1.32,-1.17 -3.17,-1.77 -5.57,-1.77 -2.22,0 -3.95,0.49 -5.19,1.47 -1.25,0.98 -1.86,2.34 -1.86,4.08 0,1.39 0.58,2.57 1.77,3.53 1.17,0.97 3.18,1.85 6.03,2.65 2.83,0.8 5.06,1.68 6.66,2.64 1.6,0.96 2.79,2.08 3.56,3.37 0.78,1.28 1.17,2.8 1.17,4.54 0,2.77 -1.09,4.99 -3.24,6.65 -2.16,1.67 -5.05,2.5 -8.66,2.5 -2.34,0 -4.54,-0.45 -6.57,-1.35 -2.03,-0.9 -3.6,-2.13 -4.71,-3.7 -1.1,-1.56 -1.65,-3.34 -1.65,-5.32l4.53 0c0,2.06 0.76,3.68 2.29,4.88 1.52,1.19 3.56,1.79 6.11,1.79 2.38,0 4.2,-0.49 5.46,-1.46 1.28,-0.97 1.91,-2.29 1.91,-3.95 0,-1.68 -0.59,-2.98 -1.76,-3.89 -1.17,-0.91 -3.3,-1.82 -6.39,-2.71zm22.64 5.51l-3.93 0 -0.3 -24.45 4.56 0 -0.33 24.45zm-4.39 7.48c0,-0.71 0.22,-1.31 0.64,-1.79 0.43,-0.49 1.07,-0.73 1.91,-0.73 0.85,0 1.49,0.24 1.93,0.73 0.44,0.48 0.65,1.08 0.65,1.79 0,0.72 -0.21,1.31 -0.65,1.77 -0.44,0.48 -1.08,0.71 -1.93,0.71 -0.84,0 -1.48,-0.23 -1.91,-0.71 -0.42,-0.46 -0.64,-1.05 -0.64,-1.77z"/>
   <path fill="#B2B3B3" fill-rule="nonzero" d="M377.65 452.58c-1.73,0 -3.13,-0.56 -4.22,-1.7 -1.08,-1.13 -1.62,-2.65 -1.62,-4.55l0 -0.4c0,-1.26 0.24,-2.39 0.72,-3.38 0.48,-1 1.16,-1.78 2.03,-2.34 0.87,-0.56 1.81,-0.84 2.82,-0.84 1.65,0 2.94,0.55 3.86,1.64 0.92,1.09 1.38,2.65 1.38,4.69l0 0.9 -8.63 0c0.03,1.26 0.39,2.27 1.1,3.04 0.7,0.77 1.59,1.16 2.68,1.16 0.77,0 1.42,-0.16 1.95,-0.47 0.54,-0.31 1,-0.73 1.4,-1.24l1.33 1.03c-1.07,1.64 -2.67,2.46 -4.8,2.46zm-0.27 -11.43c-0.88,0 -1.62,0.33 -2.22,0.97 -0.59,0.64 -0.96,1.54 -1.1,2.7l6.38 0 0 -0.16c-0.06,-1.12 -0.36,-1.98 -0.9,-2.59 -0.53,-0.61 -1.25,-0.92 -2.16,-0.92zm9.8 -1.54l0.06 1.41c0.93,-1.1 2.19,-1.65 3.78,-1.65 1.78,0 2.99,0.68 3.63,2.05 0.43,-0.62 0.98,-1.11 1.66,-1.48 0.67,-0.38 1.48,-0.57 2.41,-0.57 2.79,0 4.21,1.48 4.26,4.44l0 8.53 -2.18 0 0 -8.4c0,-0.9 -0.21,-1.59 -0.62,-2.04 -0.42,-0.45 -1.12,-0.67 -2.1,-0.67 -0.81,0 -1.48,0.24 -2.02,0.72 -0.53,0.48 -0.84,1.13 -0.92,1.95l0 8.44 -2.19 0 0 -8.34c0,-1.85 -0.91,-2.77 -2.72,-2.77 -1.43,0 -2.41,0.6 -2.93,1.82l0 9.29 -2.18 0 0 -12.73 2.06 0zm26.95 12.73c-0.12,-0.25 -0.22,-0.69 -0.3,-1.34 -1.02,1.06 -2.23,1.58 -3.63,1.58 -1.26,0 -2.28,-0.35 -3.09,-1.06 -0.8,-0.71 -1.2,-1.61 -1.2,-2.7 0,-1.33 0.5,-2.36 1.51,-3.09 1.01,-0.74 2.42,-1.1 4.25,-1.1l2.12 0 0 -1c0,-0.76 -0.23,-1.37 -0.68,-1.82 -0.46,-0.45 -1.13,-0.68 -2.01,-0.68 -0.78,0 -1.43,0.2 -1.96,0.59 -0.53,0.39 -0.79,0.87 -0.79,1.42l-2.19 0c0,-0.63 0.23,-1.25 0.68,-1.84 0.45,-0.6 1.06,-1.07 1.84,-1.41 0.77,-0.35 1.62,-0.52 2.55,-0.52 1.46,0 2.61,0.37 3.44,1.1 0.84,0.73 1.27,1.75 1.3,3.03l0 5.86c0,1.17 0.15,2.1 0.45,2.79l0 0.19 -2.29 0zm-3.61 -1.61c0.68,0 1.33,-0.18 1.94,-0.54 0.61,-0.35 1.06,-0.82 1.33,-1.38l0 -2.64 -1.7 0c-2.67,0 -4.01,0.79 -4.01,2.36 0,0.69 0.23,1.23 0.68,1.61 0.46,0.39 1.04,0.59 1.76,0.59zm11.24 1.61l-2.18 0 0 -12.73 2.18 0 0 12.73zm-2.36 -16.12c0,-0.35 0.11,-0.65 0.32,-0.9 0.22,-0.24 0.54,-0.36 0.96,-0.36 0.43,0 0.75,0.12 0.97,0.36 0.22,0.25 0.33,0.55 0.33,0.9 0,0.36 -0.11,0.66 -0.33,0.89 -0.22,0.24 -0.54,0.36 -0.97,0.36 -0.42,0 -0.74,-0.12 -0.96,-0.36 -0.21,-0.23 -0.32,-0.53 -0.32,-0.89zm8.2 16.12l-2.18 0 0 -18.08 2.18 0 0 18.08zm5.67 -11.19c0.96,-1.19 2.22,-1.78 3.76,-1.78 2.7,0 4.05,1.52 4.08,4.56l0 8.41 -2.18 0 0 -8.42c-0.01,-0.92 -0.22,-1.6 -0.63,-2.03 -0.41,-0.44 -1.05,-0.66 -1.92,-0.66 -0.71,0 -1.33,0.19 -1.87,0.56 -0.53,0.38 -0.94,0.87 -1.24,1.48l0 9.07 -2.18 0 0 -18.08 2.18 0 0 6.89zm16.39 11.43c-1.73,0 -3.13,-0.56 -4.22,-1.7 -1.08,-1.13 -1.62,-2.65 -1.62,-4.55l0 -0.4c0,-1.26 0.24,-2.39 0.72,-3.38 0.48,-1 1.16,-1.78 2.03,-2.34 0.86,-0.56 1.8,-0.84 2.82,-0.84 1.65,0 2.94,0.55 3.86,1.64 0.92,1.09 1.38,2.65 1.38,4.69l0 0.9 -8.63 0c0.03,1.26 0.39,2.27 1.1,3.04 0.7,0.77 1.59,1.16 2.68,1.16 0.76,0 1.42,-0.16 1.95,-0.47 0.53,-0.31 1,-0.73 1.4,-1.24l1.33 1.03c-1.07,1.64 -2.67,2.46 -4.8,2.46zm-0.27 -11.43c-0.88,0 -1.62,0.33 -2.22,0.97 -0.59,0.64 -0.96,1.54 -1.1,2.7l6.38 0 0 -0.16c-0.06,-1.12 -0.36,-1.98 -0.9,-2.59 -0.53,-0.61 -1.25,-0.92 -2.16,-0.92zm13.91 0.4c-0.33,-0.05 -0.69,-0.08 -1.07,-0.08 -1.43,0 -2.4,0.6 -2.91,1.82l0 9.05 -2.18 0 0 -12.73 2.12 0 0.03 1.47c0.72,-1.14 1.73,-1.71 3.04,-1.71 0.43,0 0.75,0.06 0.97,0.16l0 2.02zm7.07 11.03c-1.73,0 -3.13,-0.56 -4.22,-1.7 -1.08,-1.13 -1.62,-2.65 -1.62,-4.55l0 -0.4c0,-1.26 0.24,-2.39 0.72,-3.38 0.48,-1 1.16,-1.78 2.03,-2.34 0.87,-0.56 1.81,-0.84 2.82,-0.84 1.65,0 2.94,0.55 3.86,1.64 0.92,1.09 1.38,2.65 1.38,4.69l0 0.9 -8.63 0c0.03,1.26 0.4,2.27 1.1,3.04 0.7,0.77 1.59,1.16 2.68,1.16 0.77,0 1.42,-0.16 1.95,-0.47 0.54,-0.31 1,-0.73 1.4,-1.24l1.33 1.03c-1.07,1.64 -2.67,2.46 -4.8,2.46zm-0.27 -11.43c-0.88,0 -1.62,0.33 -2.21,0.97 -0.6,0.64 -0.97,1.54 -1.11,2.7l6.38 0 0 -0.16c-0.06,-1.12 -0.36,-1.98 -0.9,-2.59 -0.53,-0.61 -1.25,-0.92 -2.16,-0.92zm26.57 5.28c-0.1,1.91 -0.57,3.4 -1.42,4.51 -0.84,1.09 -1.98,1.64 -3.39,1.64 -1.48,0 -2.42,-0.66 -2.83,-1.97 -0.43,0.66 -0.91,1.16 -1.45,1.48 -0.55,0.33 -1.11,0.49 -1.7,0.49 -1.11,0 -1.95,-0.45 -2.53,-1.36 -0.57,-0.91 -0.78,-2.17 -0.63,-3.78 0.11,-1.3 0.41,-2.46 0.88,-3.47 0.48,-1.02 1.09,-1.82 1.84,-2.4 0.75,-0.58 1.54,-0.87 2.36,-0.87 0.64,0 1.21,0.08 1.71,0.25 0.5,0.17 1.07,0.5 1.69,1l-0.61 6.52c-0.15,1.82 0.36,2.72 1.51,2.72 0.89,0 1.61,-0.44 2.15,-1.32 0.55,-0.88 0.85,-2.03 0.9,-3.45 0.15,-3.06 -0.42,-5.4 -1.7,-7.01 -1.29,-1.6 -3.24,-2.4 -5.86,-2.4 -1.58,0 -2.98,0.39 -4.2,1.17 -1.23,0.78 -2.19,1.91 -2.9,3.38 -0.7,1.48 -1.1,3.18 -1.18,5.11 -0.1,1.94 0.14,3.63 0.7,5.06 0.56,1.44 1.42,2.53 2.58,3.28 1.16,0.76 2.56,1.14 4.2,1.14 0.71,0 1.42,-0.08 2.13,-0.26 0.7,-0.17 1.3,-0.39 1.77,-0.67l0.43 1.37c-0.48,0.31 -1.13,0.57 -1.93,0.78 -0.81,0.2 -1.62,0.3 -2.45,0.3 -1.96,0 -3.65,-0.44 -5.06,-1.33 -1.41,-0.88 -2.47,-2.15 -3.17,-3.81 -0.7,-1.66 -1.01,-3.6 -0.91,-5.82 0.09,-2.16 0.57,-4.1 1.44,-5.82 0.88,-1.72 2.06,-3.05 3.55,-3.99 1.49,-0.94 3.17,-1.41 5.05,-1.41 1.95,0 3.63,0.44 5.03,1.32 1.39,0.88 2.43,2.15 3.12,3.8 0.68,1.66 0.97,3.6 0.88,5.82zm-12.08 1.01c-0.11,1.11 0,1.96 0.31,2.56 0.32,0.6 0.82,0.9 1.51,0.9 0.47,0 0.93,-0.2 1.36,-0.6 0.44,-0.4 0.8,-0.98 1.08,-1.72l0.01 -0.11 0.54 -5.91c-0.43,-0.23 -0.9,-0.34 -1.41,-0.34 -0.92,0 -1.68,0.46 -2.28,1.39 -0.6,0.94 -0.97,2.21 -1.12,3.83zm16.96 -7.83l0.06 1.41c0.93,-1.1 2.19,-1.65 3.78,-1.65 1.78,0 2.99,0.68 3.64,2.05 0.42,-0.62 0.97,-1.11 1.65,-1.48 0.68,-0.38 1.48,-0.57 2.41,-0.57 2.79,0 4.21,1.48 4.26,4.44l0 8.53 -2.18 0 0 -8.4c0,-0.9 -0.21,-1.59 -0.62,-2.04 -0.42,-0.45 -1.11,-0.67 -2.1,-0.67 -0.81,0 -1.48,0.24 -2.01,0.72 -0.53,0.48 -0.85,1.13 -0.93,1.95l0 8.44 -2.19 0 0 -8.34c0,-1.85 -0.91,-2.77 -2.72,-2.77 -1.43,0 -2.41,0.6 -2.93,1.82l0 9.29 -2.18 0 0 -12.73 2.06 0zm26.95 12.73c-0.12,-0.25 -0.22,-0.69 -0.3,-1.34 -1.01,1.06 -2.22,1.58 -3.63,1.58 -1.25,0 -2.28,-0.35 -3.09,-1.06 -0.8,-0.71 -1.2,-1.61 -1.2,-2.7 0,-1.33 0.5,-2.36 1.51,-3.09 1.01,-0.74 2.43,-1.1 4.25,-1.1l2.12 0 0 -1c0,-0.76 -0.22,-1.37 -0.68,-1.82 -0.45,-0.45 -1.13,-0.68 -2.01,-0.68 -0.78,0 -1.43,0.2 -1.96,0.59 -0.52,0.39 -0.78,0.87 -0.78,1.42l-2.19 0c0,-0.63 0.22,-1.25 0.67,-1.84 0.45,-0.6 1.07,-1.07 1.84,-1.41 0.77,-0.35 1.62,-0.52 2.55,-0.52 1.47,0 2.61,0.37 3.45,1.1 0.83,0.73 1.26,1.75 1.29,3.03l0 5.86c0,1.17 0.15,2.1 0.45,2.79l0 0.19 -2.29 0zm-3.61 -1.61c0.68,0 1.33,-0.18 1.94,-0.54 0.62,-0.35 1.06,-0.82 1.33,-1.38l0 -2.64 -1.7 0c-2.67,0 -4,0.79 -4,2.36 0,0.69 0.22,1.23 0.68,1.61 0.45,0.39 1.04,0.59 1.75,0.59zm11.24 1.61l-2.18 0 0 -12.73 2.18 0 0 12.73zm-2.36 -16.12c0,-0.35 0.11,-0.65 0.32,-0.9 0.22,-0.24 0.54,-0.36 0.96,-0.36 0.43,0 0.75,0.12 0.97,0.36 0.22,0.25 0.33,0.55 0.33,0.9 0,0.36 -0.11,0.66 -0.33,0.89 -0.22,0.24 -0.54,0.36 -0.97,0.36 -0.42,0 -0.74,-0.12 -0.96,-0.36 -0.21,-0.23 -0.32,-0.53 -0.32,-0.89zm8.2 16.12l-2.17 0 0 -18.08 2.17 0 0 18.08zm3.54 -1.14c0,-0.38 0.11,-0.69 0.33,-0.94 0.23,-0.25 0.56,-0.38 1.01,-0.38 0.45,0 0.79,0.13 1.02,0.38 0.23,0.25 0.35,0.56 0.35,0.94 0,0.36 -0.12,0.66 -0.35,0.9 -0.23,0.24 -0.57,0.36 -1.02,0.36 -0.45,0 -0.78,-0.12 -1.01,-0.36 -0.22,-0.24 -0.33,-0.54 -0.33,-0.9zm11.4 -0.4c0.78,0 1.46,-0.23 2.04,-0.7 0.58,-0.47 0.9,-1.06 0.96,-1.77l2.06 0c-0.04,0.73 -0.29,1.43 -0.75,2.09 -0.47,0.66 -1.08,1.18 -1.86,1.58 -0.77,0.39 -1.59,0.58 -2.45,0.58 -1.73,0 -3.12,-0.57 -4.14,-1.73 -1.02,-1.16 -1.54,-2.75 -1.54,-4.76l0 -0.36c0,-1.24 0.23,-2.34 0.69,-3.31 0.45,-0.96 1.11,-1.72 1.96,-2.25 0.85,-0.53 1.85,-0.8 3.02,-0.8 1.43,0 2.61,0.43 3.56,1.28 0.94,0.86 1.45,1.97 1.51,3.33l-2.06 0c-0.06,-0.82 -0.37,-1.5 -0.94,-2.03 -0.55,-0.53 -1.25,-0.8 -2.07,-0.8 -1.11,0 -1.97,0.4 -2.58,1.2 -0.6,0.8 -0.91,1.95 -0.91,3.46l0 0.41c0,1.46 0.3,2.6 0.91,3.39 0.6,0.79 1.47,1.19 2.59,1.19zm6.94 -4.94c0,-1.25 0.24,-2.37 0.73,-3.37 0.49,-1 1.18,-1.77 2.05,-2.31 0.88,-0.54 1.88,-0.81 3,-0.81 1.73,0 3.14,0.6 4.21,1.8 1.07,1.2 1.6,2.8 1.6,4.79l0 0.16c0,1.24 -0.24,2.35 -0.71,3.34 -0.47,0.98 -1.15,1.75 -2.04,2.3 -0.88,0.55 -1.89,0.82 -3.04,0.82 -1.73,0 -3.13,-0.59 -4.19,-1.8 -1.08,-1.2 -1.61,-2.79 -1.61,-4.77l0 -0.15zm2.19 0.25c0,1.41 0.32,2.55 0.98,3.41 0.65,0.85 1.53,1.28 2.63,1.28 1.11,0 1.99,-0.43 2.64,-1.3 0.65,-0.87 0.97,-2.08 0.97,-3.65 0,-1.4 -0.33,-2.52 -0.99,-3.39 -0.66,-0.87 -1.54,-1.31 -2.64,-1.31 -1.08,0 -1.94,0.43 -2.6,1.29 -0.66,0.85 -0.99,2.08 -0.99,3.67zm14.18 -6.5l0.06 1.41c0.94,-1.1 2.19,-1.65 3.78,-1.65 1.78,0 2.99,0.68 3.64,2.05 0.42,-0.62 0.98,-1.11 1.65,-1.48 0.68,-0.38 1.48,-0.57 2.41,-0.57 2.79,0 4.21,1.48 4.26,4.44l0 8.53 -2.18 0 0 -8.4c0,-0.9 -0.21,-1.59 -0.62,-2.04 -0.42,-0.45 -1.11,-0.67 -2.1,-0.67 -0.81,0 -1.48,0.24 -2.01,0.72 -0.53,0.48 -0.84,1.13 -0.93,1.95l0 8.44 -2.19 0 0 -8.34c0,-1.85 -0.91,-2.77 -2.72,-2.77 -1.43,0 -2.4,0.6 -2.93,1.82l0 9.29 -2.18 0 0 -12.73 2.06 0z"/>
   <g>
    <polygon fill="#FFBF0C" fill-rule="nonzero" points="492.06,90.87 444.24,33.52 396.42,90.87 414.92,90.87 414.92,164.57 473.88,164.57 473.88,90.87 "/>
    <polygon fill="#FF6B3D" fill-rule="nonzero" points="547.58,180.78 547.58,107.08 487.14,107.08 487.14,180.78 470.37,180.78 518.19,238.13 566.01,180.78 "/>
   </g>
   <path fill="#70A09A" fill-rule="nonzero" d="M631.76 752.4c-14.63,5.29 -22.22,21.49 -16.93,36.12 5.29,14.63 21.5,22.22 36.12,16.93 14.63,-5.29 22.22,-21.5 16.93,-36.12 -5.29,-14.63 -21.49,-22.22 -36.12,-16.93z"/>
   <path fill="#FFBF0C" fill-rule="nonzero" d="M635.23 607.77c-17.97,-8.34 -38.07,-9.22 -56.69,-2.49 -0.17,0.06 -0.34,0.13 -0.51,0.19 -18.19,6.73 -32.85,20.13 -41.27,37.74 -8.42,17.61 -9.66,37.43 -3.47,55.81 6.49,19.3 20.18,34.74 38.54,43.49 9.95,4.74 17.7,13.11 21.26,22.96l2.6 7.19 76.75 -27.76 -2.6 -7.2c-3.58,-9.9 -3.03,-21.19 1.53,-30.98 8.36,-17.96 9.25,-38.12 2.51,-56.75 -6.8,-18.79 -20.52,-33.78 -38.65,-42.2z"/>
   <path fill="#84B093" fill-rule="nonzero" d="M593.09 765.47l4.36 12.04c3.34,9.24 13.55,14.02 22.79,10.68l43.27 -15.65c9.24,-3.35 14.03,-13.55 10.68,-22.8l-4.35 -12.04 -76.75 27.77z"/>
   <path fill="#FFDA2D" fill-rule="nonzero" d="M591.92 655.15c-4.63,9.88 -16.4,14.14 -26.28,9.51 -9.88,-4.63 -14.14,-16.4 -9.51,-26.28 4.63,-9.89 16.4,-14.14 26.28,-9.51 9.89,4.63 14.14,16.4 9.51,26.28z"/>
   <path fill="#FFDA2D" fill-rule="nonzero" d="M583.62 648.13c18.44,3.29 30.73,20.91 27.44,39.35 -3.29,18.44 -20.91,30.72 -39.35,27.43 -18.44,-3.28 -30.72,-20.9 -27.43,-39.34 3.28,-18.44 20.9,-30.73 39.34,-27.44z"/>
   <path fill="white" fill-rule="nonzero" d="M580.01 667.3c7.65,1.36 12.75,8.67 11.38,16.33 -1.36,7.65 -8.67,12.75 -16.33,11.38 -7.65,-1.36 -12.75,-8.67 -11.39,-16.33 1.37,-7.65 8.68,-12.75 16.34,-11.38z"/>
   <path fill="#FF6B3D" fill-rule="nonzero" d="M314.35 759.52c2.75,-4.72 4.98,-9.74 6.68,-15.02 1.69,-5.28 2.8,-10.66 3.32,-16.1l2.32 -0.5 15.04 -3.25 -3.25 -15.04 -3.25 -15.04 -3.25 -15.04 -15.04 3.25 -2.35 0.51c-2.66,-4.65 -7.4,-9.52 -11.01,-13.55 -3.78,-4.22 -8.46,-8.12 -14.1,-11.71l0.73 -2.25 5.57 -17.34 -11.47 -3.68 -14.65 -4.71 -18.48 -5.94 -5.57 17.34 -0.72 2.26c-3.6,0.62 -9.24,1.2 -14.77,2.43 -5.28,1.17 -9.42,3.19 -14.29,5.42l-1.14 -1.63 -10.09 -11.32 -11.28 10.37 -11.34 10.35 -11.37 10.35 10.35 11.4 1.6 1.76c-2.75,4.72 -4.98,9.74 -6.67,15.02 -1.7,5.29 -2.81,10.67 -3.32,16.11l-2.32 0.5 -15.04 3.25 3.25 15.04 3.25 15.03 3.25 15.04 15.04 -3.24 2.35 -0.51c2.66,4.64 3.89,8.39 7.5,12.42 3.77,4.22 8.02,7.98 10.58,10.58l-0.72 2.25 -4.36 13.57 18.49 5.93 14.64 4.71 11.47 3.68 4.36 -13.56 0.72 -2.26c6.67,0.37 12.75,-0.07 18.27,-1.3 5.29,-1.18 11.18,-2.63 16.05,-4.86l2.01 1.91 10.54 11.47 11.5 -10.31 11.45 -10.31 11.42 -10.33 -10.32 -11.39 -1.58 -1.76zm-79.24 3.17l0 0c-22.88,-7.35 -35.52,-31.95 -28.17,-54.84 7.36,-22.89 31.96,-35.52 54.84,-28.17 22.89,7.35 35.52,31.95 28.17,54.84 -7.35,22.88 -31.95,35.52 -54.84,28.17z"/>
   <path fill="#84B093" fill-rule="nonzero" d="M88.73 392.23c0,-6.53 -4.85,-12.47 -11.78,-14.46l-2.48 -0.71 -0.12 -2.34c-0.58,-10.69 -10.33,-19.06 -22.21,-19.06 -10.59,0 -19.77,6.8 -21.81,16.16l-0.5 2.31 -2.58 0.37c-8.81,1.28 -15.45,8.31 -15.45,16.34 0,9.13 8.24,16.55 18.36,16.55l41.74 0c9.28,0 16.83,-6.8 16.83,-15.16z"/>
   <path fill="#84B093" fill-rule="nonzero" d="M233.76 336.58c0,-3.42 -2.53,-6.53 -6.16,-7.57l-1.3 -0.37 -0.07 -1.23c-0.29,-5.59 -5.4,-9.97 -11.62,-9.97 -5.54,0 -10.34,3.56 -11.41,8.46l-0.26 1.2 -1.35 0.2c-4.61,0.67 -8.09,4.35 -8.09,8.55 0,4.77 4.31,8.66 9.61,8.66l21.85 0c4.85,0 8.8,-3.56 8.8,-7.93z"/>
   <g>
    <path fill="#84B093" fill-rule="nonzero" d="M481.86 505.04c3.02,0 5.95,0.46 8.8,1.39 2.85,0.93 5.38,2.35 7.59,4.27 2.21,1.93 3.98,4.37 5.3,7.35 1.32,2.97 1.98,6.53 1.98,10.66 0,0.58 -0.03,1.34 -0.09,2.29 -0.06,0.95 -0.2,1.96 -0.4,3.04 -0.21,1.07 -0.53,2.17 -0.96,3.28 -0.44,1.12 -1.03,2.13 -1.77,3.04 -0.74,0.91 -1.67,1.64 -2.79,2.2 -1.11,0.56 -2.45,0.83 -4.02,0.83 -1.16,0 -2.13,-0.14 -2.92,-0.43 -0.78,-0.29 -1.42,-0.66 -1.92,-1.12 -0.49,-0.45 -0.87,-0.95 -1.11,-1.48 -0.25,-0.54 -0.42,-1.04 -0.5,-1.49 -1.4,1.32 -3.02,2.3 -4.83,2.94 -1.82,0.64 -3.7,0.96 -5.64,0.96 -3.18,0 -5.58,-0.8 -7.19,-2.41 -1.61,-1.61 -2.42,-3.78 -2.42,-6.51 0,-1.78 0.33,-3.27 0.99,-4.49 0.67,-1.22 1.53,-2.2 2.61,-2.95 1.07,-0.74 2.3,-1.28 3.68,-1.61 1.39,-0.33 2.8,-0.49 4.25,-0.49 1.57,0 2.87,0.13 3.9,0.4 1.04,0.27 1.84,0.55 2.42,0.84 0,-0.83 -0.1,-1.59 -0.31,-2.3 -0.21,-0.7 -0.56,-1.3 -1.05,-1.79 -0.5,-0.5 -1.17,-0.88 -2.02,-1.15 -0.85,-0.27 -1.91,-0.4 -3.19,-0.4 -1.73,0 -3.27,0.23 -4.61,0.68 -1.35,0.46 -2.43,1.07 -3.26,1.86l-1.98 -6.01c1.57,-1.08 3.28,-1.85 5.14,-2.33 1.86,-0.47 3.82,-0.71 5.89,-0.71 2.97,0 5.29,0.43 6.94,1.3 1.65,0.87 2.87,1.96 3.66,3.29 0.78,1.32 1.24,2.74 1.39,4.27 0.14,1.53 0.22,2.98 0.22,4.34l0 4.15c0,0.91 0.02,1.82 0.06,2.73 0.04,0.91 0.16,1.73 0.37,2.48 0.21,0.74 0.51,1.34 0.9,1.79 0.39,0.46 0.96,0.69 1.7,0.69 0.99,0 1.77,-0.4 2.33,-1.18 0.55,-0.78 0.99,-1.73 1.3,-2.82 0.31,-1.09 0.5,-2.2 0.59,-3.32 0.08,-1.11 0.12,-2 0.12,-2.66 0,-2.77 -0.45,-5.32 -1.36,-7.65 -0.91,-2.34 -2.21,-4.35 -3.91,-6.05 -1.69,-1.69 -3.74,-3.01 -6.13,-3.96 -2.4,-0.95 -5.1,-1.43 -8.12,-1.43 -2.97,0 -5.65,0.48 -8.02,1.43 -2.38,0.95 -4.38,2.26 -6.01,3.93 -1.64,1.68 -2.89,3.66 -3.75,5.95 -0.87,2.3 -1.31,4.8 -1.31,7.53 0,2.6 0.41,5.05 1.21,7.35 0.81,2.29 1.99,4.29 3.54,6 1.54,1.72 3.44,3.07 5.66,4.07 2.24,0.99 4.8,1.48 7.69,1.48 1.07,0 2.04,-0.07 2.91,-0.21 0.87,-0.15 1.68,-0.33 2.45,-0.53 0.76,-0.21 1.5,-0.46 2.2,-0.74 0.7,-0.29 1.45,-0.58 2.23,-0.87l1.24 4.21c-1.78,0.83 -3.63,1.45 -5.55,1.86 -1.92,0.41 -3.81,0.62 -5.67,0.62 -3.1,0 -6.01,-0.55 -8.73,-1.64 -2.73,-1.1 -5.12,-2.66 -7.16,-4.68 -2.05,-2.03 -3.66,-4.47 -4.83,-7.34 -1.18,-2.87 -1.77,-6.11 -1.77,-9.7 0,-3.8 0.66,-7.14 1.98,-10.01 1.32,-2.87 3.09,-5.28 5.3,-7.22 2.21,-1.94 4.76,-3.4 7.65,-4.37 2.89,-0.97 5.93,-1.45 9.11,-1.45zm2.48 31.17l0 0c0.54,-0.29 1.07,-0.69 1.61,-1.18 0.54,-0.5 0.81,-1.1 0.81,-1.8l0 -2.54c-0.62,-0.25 -1.5,-0.51 -2.64,-0.77 -1.13,-0.27 -2.3,-0.41 -3.5,-0.41 -1.73,0 -2.98,0.35 -3.75,1.06 -0.76,0.7 -1.14,1.77 -1.14,3.22 0,2.31 1.22,3.47 3.65,3.47 0.58,0 1.35,-0.06 2.3,-0.19 0.95,-0.12 1.83,-0.41 2.66,-0.86z"/>
   </g>
   <polygon fill="#FFBF0C" fill-rule="nonzero" points="791.24,791.86 782.59,799.06 783.62,810.26 774.1,804.26 763.75,808.7 766.52,797.79 759.1,789.33 770.33,788.59 776.09,778.92 780.26,789.37 "/>
   <polygon fill="#FFBF0C" fill-rule="nonzero" points="651.42,71.2 650.08,82.38 658.52,89.82 647.48,91.99 643.01,102.32 637.53,92.49 626.32,91.43 633.98,83.18 631.52,72.2 641.73,76.93 "/>
   <polygon fill="#FFBF0C" fill-rule="nonzero" points="102.37,756.52 110.88,763.87 121.77,761.03 117.41,771.4 123.48,780.88 112.26,779.94 105.13,788.64 102.56,777.68 92.08,773.58 101.71,767.75 "/>
   <polygon fill="#FFBF0C" fill-rule="nonzero" points="15.58,527.58 19.35,538.18 30.22,541.09 21.3,547.95 21.9,559.19 12.61,552.83 2.11,556.87 5.29,546.07 -1.8,537.33 9.45,537.02 "/>
   <polygon fill="#FFBF0C" fill-rule="nonzero" points="93.76,160.2 102.71,167.03 113.41,163.52 109.69,174.14 116.33,183.23 105.08,182.97 98.49,192.1 95.25,181.31 84.54,177.87 93.79,171.46 "/>
   <polygon fill="#FFBF0C" fill-rule="nonzero" points="83.5,219.91 90.13,221.24 94.99,216.52 95.78,223.25 101.76,226.41 95.61,229.24 94.45,235.9 89.86,230.93 83.16,231.88 86.48,225.98 "/>
  </g>
 </g>
</svg>
